<svg xmlns="http://www.w3.org/2000/svg" width="150" height="50"><path d="M106.727 45.154c-1.271 0-3.088-.551-3.985-2.688-.824-1.955-2.62-1.693-2.823-1.658l-.316-1.66c2-.348 3.969.768 4.698 2.662.82 1.948 2.651 1.652 2.857 1.613l.343 1.657c-.22.046-.481.074-.774.074zm-39.007-5.99l-2.058 4.84h-2.081l7.871-17.869 7.668 17.869h-2.104l-2.012-4.84-.747-1.766-2.85-6.832-2.918 6.832-.769 1.766z"/><circle cx="71.351" cy="40.371" r="1.155"/><path d="M7.15 42.238h4.705v1.764H5.25V26.945h1.9v15.293zm6.582-15.293h8.844v1.766h-6.944v5.066h6.741v1.765h-6.741v6.696h6.944v1.764h-8.844V26.945zm18.63 3.326c-.347-.588-.743-1.045-1.188-1.369-.445-.324-1.029-.485-1.753-.485-.377 0-.735.063-1.075.192-.34.127-.641.309-.905.541-.263.234-.475.52-.622.838-.15.324-.226.684-.226 1.074 0 .362.087.684.261.961.173.279.388.523.645.735.256.212.543.394.859.542l.905.43 1.131.5c.558.24 1.082.5 1.572.778.491.279.924.604 1.302.974.376.369.674.801.893 1.289.218.49.329 1.076.329 1.754a5.2 5.2 0 01-.419 2.092 5.036 5.036 0 01-1.154 1.662 5.482 5.482 0 01-1.708 1.107 5.325 5.325 0 01-2.081.408 5.614 5.614 0 01-1.9-.316 5.174 5.174 0 01-1.572-.893 5.233 5.233 0 01-1.164-1.393 5.852 5.852 0 01-.679-1.811l1.855-.521a3.86 3.86 0 001.119 2.24c.295.287.638.514 1.03.68s.814.248 1.266.248a3.658 3.658 0 002.432-.938c.325-.294.584-.646.78-1.052.198-.417.299-.873.294-1.335 0-.497-.09-.919-.271-1.267a3.053 3.053 0 00-.713-.904 4.733 4.733 0 00-1.007-.667 38.209 38.209 0 00-1.154-.556l-1.04-.451a18.165 18.165 0 01-1.425-.726 5.642 5.642 0 01-1.188-.883 3.673 3.673 0 01-.804-1.164c-.196-.444-.294-.978-.294-1.596 0-.662.128-1.263.385-1.798a4.075 4.075 0 011.051-1.367c.452-.381.97-.676 1.527-.872a5.41 5.41 0 011.81-.306c.95 0 1.809.229 2.579.689.769.461 1.38 1.111 1.832 1.956l-1.515.98zm14.092-4.296l6.198 14.317 6.22-14.317 3.462 18.027h-1.946l-2.194-11.536h-.045l-5.497 12.237-5.474-12.237h-.045l-2.194 11.536h-1.946l3.461-18.027zm35.763 18.027h-1.9V26.945h2.466c.813 0 1.594.064 2.342.193.746.127 1.41.365 1.989.711.58.348 1.045.826 1.392 1.438.349.609.521 1.398.521 2.363 0 1.328-.381 2.412-1.143 3.258-.763.845-1.807 1.326-3.134 1.447l5.431 7.646h-2.332l-5.156-7.487h-.475v7.488h-.001zm0-9.162h.588c.543 0 1.07-.033 1.582-.102.482-.057.95-.203 1.381-.43.407-.218.735-.527.983-.928s.374-.931.374-1.595c0-.693-.122-1.248-.361-1.662a2.34 2.34 0 00-.962-.929 4.048 4.048 0 00-1.38-.396 13.85 13.85 0 00-1.641-.091h-.564v6.133zm29.661 2.264v.973c0 .331.022.664.069.994.044.332.119.654.227.961.104.311.256.602.452.873.376.527.886.931 1.526 1.209a4.724 4.724 0 001.912.418 4.62 4.62 0 001.843-.395 3.905 3.905 0 001.504-1.119c.228-.271.396-.565.509-.883.114-.316.196-.646.248-.984.054-.34.08-.684.08-1.028V26.945h1.898v10.678c0 .468-.014.908-.043 1.322a7.246 7.246 0 01-.191 1.209c-.1.395-.25.771-.453 1.133a5.275 5.275 0 01-.805 1.063 5.842 5.842 0 01-2.092 1.447 6.49 6.49 0 01-2.498.498 6.68 6.68 0 01-2.388-.441 5.652 5.652 0 01-2.024-1.301 5.254 5.254 0 01-.894-1.098 4.83 4.83 0 01-.498-1.164 7.194 7.194 0 01-.226-1.277 15.785 15.785 0 01-.057-1.392V26.945h1.897v10.158h.004zm12.518-10.159h8.846v1.766h-6.943v5.066h6.74v1.765h-6.74v6.696h6.943v1.764h-8.846V26.945zm18.729 3.326c-.348-.588-.743-1.045-1.188-1.369-.445-.324-1.03-.485-1.754-.485a3 3 0 00-1.074.192 2.862 2.862 0 00-.903.541 2.497 2.497 0 00-.849 1.912c0 .362.086.684.26.961.173.279.388.523.646.735.256.212.543.394.857.542l.904.43 1.131.5c.559.24 1.082.5 1.572.778.488.279.924.604 1.301.974s.675.801.895 1.289c.219.49.327 1.076.327 1.754a5.2 5.2 0 01-.418 2.092 5.05 5.05 0 01-1.154 1.662 5.47 5.47 0 01-1.708 1.107 5.316 5.316 0 01-2.08.408c-.68 0-1.312-.105-1.899-.316a5.195 5.195 0 01-1.572-.893 5.24 5.24 0 01-1.165-1.393 5.989 5.989 0 01-.678-1.811l1.855-.521a3.852 3.852 0 001.117 2.24c.295.287.639.514 1.03.68s.813.248 1.267.248.889-.082 1.313-.248c.421-.166.795-.396 1.119-.69s.584-.646.781-1.052a3.07 3.07 0 00.293-1.335c0-.497-.091-.919-.271-1.267a3.066 3.066 0 00-.712-.904 4.758 4.758 0 00-1.007-.667 48.86 48.86 0 00-1.153-.556l-1.04-.451a18.186 18.186 0 01-1.426-.726 5.642 5.642 0 01-1.188-.883 3.7 3.7 0 01-.804-1.164c-.194-.444-.294-.978-.294-1.596 0-.662.128-1.263.385-1.798a4.086 4.086 0 011.051-1.367c.452-.381.97-.677 1.527-.872a5.42 5.42 0 011.811-.306c.948 0 1.81.229 2.578.689.77.461 1.381 1.111 1.832 1.956l-1.515.98zm-44.057-3.623c-4.901 0-8.875 3.951-8.875 8.826 0 4.873 3.974 8.825 8.875 8.825 4.902 0 8.875-3.952 8.875-8.825 0-4.874-3.97-8.826-8.875-8.826zm0 15.888c-3.861 0-6.992-3.162-6.992-7.062 0-3.9 3.131-7.063 6.992-7.063 3.863 0 6.992 3.162 6.992 7.063.001 3.9-3.128 7.062-6.992 7.062zM30.353 21.577h3.867l-.777 1.764h-4.99V6.285h1.9v15.292zM98.809 6.724h3.211c.611-.001 1.223.026 1.832.08.574.05 1.143.152 1.697.305a8.167 8.167 0 011.596.634 8.287 8.287 0 011.525 1.041c.98.845 1.698 1.817 2.15 2.918.451 1.101.677 2.292.677 3.574 0 1.252-.226 2.413-.677 3.483-.452 1.071-1.155 2.029-2.105 2.874a8.286 8.286 0 01-1.538 1.097 7.832 7.832 0 01-1.594.656 9.067 9.067 0 01-1.722.317c-.594.053-1.225.079-1.889.079h-3.166V6.724h.003zm3.278 15.291c.513 0 1.013-.022 1.493-.067.471-.043.937-.13 1.391-.26.45-.13.883-.313 1.289-.544.438-.25.845-.549 1.213-.893a6.508 6.508 0 001.594-2.284c.354-.86.531-1.765.531-2.715a7.258 7.258 0 00-.553-2.805 6.214 6.214 0 00-1.664-2.307c-.783-.694-1.609-1.142-2.479-1.346a12.226 12.226 0 00-2.815-.305h-1.38v13.526h1.38zm11.114-15.291h8.847v1.765h-6.944v5.066h6.738v1.765h-6.738v6.695h6.944v1.765h-8.847V6.724zM62.814 5.345l6.196 14.318 6.222-14.318 3.459 18.027h-1.943l-2.194-11.536h-.046L69.01 24.073l-5.473-12.237h-.045l-2.195 11.536h-1.946l3.463-18.027zm25.168 1.087c-4.901 0-8.877 3.952-8.877 8.826s3.976 8.826 8.877 8.826 8.875-3.952 8.875-8.826-3.972-8.826-8.875-8.826zm0 15.887c-3.862 0-6.992-3.162-6.992-7.062 0-3.9 3.13-7.062 6.992-7.062 3.863 0 6.992 3.162 6.992 7.062.001 3.9-3.128 7.062-6.992 7.062zm-48.579-3.817l-2.058 4.841h-2.081l7.872-17.87 7.668 17.87H48.7l-2.014-4.841-.747-1.764-2.849-6.831-2.918 6.831-.769 1.764z"/><circle cx="43.034" cy="19.711" r="1.155"/><circle cx="135.613" cy="14.408" r="1.155"/><circle cx="14.887" cy="14.408" r="1.155"/><path fill="#FFF" d="M106.227 44.654c-1.271 0-3.088-.551-3.985-2.688-.824-1.955-2.62-1.693-2.823-1.658l-.316-1.66c2-.348 3.969.768 4.698 2.662.82 1.948 2.651 1.652 2.857 1.613l.342 1.658c-.219.045-.48.073-.773.073zm-39.007-5.99l-2.058 4.84h-2.081l7.871-17.87 7.668 17.87h-2.104l-2.012-4.84-.747-1.766-2.85-6.832-2.918 6.832-.769 1.766zM6.65 41.738h4.705v1.764H4.75V26.445h1.9v15.293zm6.582-15.293h8.844v1.766h-6.944v5.066h6.741v1.765h-6.741v6.696h6.944v1.764h-8.844V26.445zm18.63 3.326c-.347-.588-.743-1.045-1.188-1.369-.445-.324-1.029-.485-1.753-.485-.377 0-.735.063-1.075.192-.34.127-.641.309-.905.541-.263.234-.475.52-.622.838-.15.324-.226.684-.226 1.074 0 .362.087.684.261.961.173.279.388.523.645.735.256.212.543.394.859.542l.905.43 1.131.5c.558.24 1.082.5 1.572.778.491.279.924.604 1.302.974.376.369.674.801.893 1.289.218.49.329 1.076.329 1.754a5.2 5.2 0 01-.419 2.092 5.036 5.036 0 01-1.154 1.662 5.482 5.482 0 01-1.708 1.107 5.325 5.325 0 01-2.081.408 5.614 5.614 0 01-1.9-.316 5.174 5.174 0 01-1.572-.893 5.233 5.233 0 01-1.164-1.393 5.852 5.852 0 01-.679-1.811l1.855-.521a3.86 3.86 0 001.119 2.24c.295.287.638.514 1.03.68s.814.248 1.266.248a3.658 3.658 0 002.432-.938c.325-.294.584-.646.78-1.052.198-.417.299-.873.294-1.335 0-.497-.09-.919-.271-1.267a3.053 3.053 0 00-.713-.904 4.733 4.733 0 00-1.007-.667 38.209 38.209 0 00-1.154-.556l-1.04-.451a18.165 18.165 0 01-1.425-.726 5.642 5.642 0 01-1.188-.883 3.673 3.673 0 01-.804-1.164c-.196-.444-.294-.978-.294-1.596 0-.662.128-1.263.385-1.798a4.075 4.075 0 011.051-1.367c.452-.381.97-.676 1.527-.872a5.41 5.41 0 011.81-.306c.95 0 1.809.229 2.579.689.769.461 1.38 1.111 1.832 1.956l-1.515.98zm14.092-4.297l6.198 14.318 6.22-14.318 3.462 18.028h-1.946l-2.194-11.536h-.045l-5.497 12.237-5.474-12.237h-.045l-2.194 11.536h-1.946l3.461-18.028zm35.763 18.028h-1.9V26.445h2.466c.813 0 1.594.064 2.342.193.746.127 1.41.365 1.989.711.58.348 1.045.826 1.392 1.438.349.609.521 1.398.521 2.363 0 1.328-.381 2.412-1.143 3.258-.763.845-1.807 1.326-3.134 1.447l5.431 7.646h-2.332l-5.156-7.487h-.475v7.488h-.001zm0-9.162h.588c.543 0 1.07-.033 1.582-.102.482-.057.95-.203 1.381-.43.407-.218.735-.527.983-.928s.374-.931.374-1.595c0-.693-.122-1.248-.361-1.662a2.34 2.34 0 00-.962-.929 4.048 4.048 0 00-1.38-.396 13.85 13.85 0 00-1.641-.091h-.564v6.133zm29.661 2.264v.973c0 .331.022.664.069.994.044.332.119.654.227.961.104.311.256.602.452.873.376.527.886.931 1.526 1.209a4.724 4.724 0 001.912.418 4.62 4.62 0 001.843-.395 3.905 3.905 0 001.504-1.119c.228-.271.396-.565.509-.883.114-.316.196-.646.248-.984.054-.34.08-.684.08-1.028V26.445h1.898v10.678c0 .468-.014.908-.043 1.322a7.246 7.246 0 01-.191 1.209c-.1.395-.25.771-.453 1.133a5.275 5.275 0 01-.805 1.063 5.842 5.842 0 01-2.092 1.447 6.49 6.49 0 01-2.498.498 6.68 6.68 0 01-2.388-.441 5.652 5.652 0 01-2.024-1.301 5.254 5.254 0 01-.894-1.098 4.83 4.83 0 01-.498-1.164 7.194 7.194 0 01-.226-1.277 15.785 15.785 0 01-.057-1.392V26.445h1.897v10.158h.004zm12.518-10.159h8.846v1.766h-6.943v5.066h6.74v1.765h-6.74v6.696h6.943v1.764h-8.846V26.445zm18.729 3.326c-.348-.588-.743-1.045-1.188-1.369-.445-.324-1.03-.485-1.754-.485a3 3 0 00-1.074.192 2.862 2.862 0 00-.903.541 2.497 2.497 0 00-.849 1.912c0 .362.086.684.26.961.173.279.388.523.646.735.256.212.543.394.857.542l.904.43 1.131.5c.559.24 1.082.5 1.572.778.488.279.924.604 1.301.974s.675.801.895 1.289c.219.49.327 1.076.327 1.754a5.2 5.2 0 01-.418 2.092 5.05 5.05 0 01-1.154 1.662 5.47 5.47 0 01-1.708 1.107 5.316 5.316 0 01-2.08.408c-.68 0-1.312-.105-1.899-.316a5.195 5.195 0 01-1.572-.893 5.24 5.24 0 01-1.165-1.393 5.989 5.989 0 01-.678-1.811l1.855-.521a3.852 3.852 0 001.117 2.24c.295.287.639.514 1.03.68s.813.248 1.267.248.889-.082 1.313-.248c.421-.166.795-.396 1.119-.69s.584-.646.781-1.052a3.07 3.07 0 00.293-1.335c0-.497-.091-.919-.271-1.267a3.066 3.066 0 00-.712-.904 4.758 4.758 0 00-1.007-.667 48.86 48.86 0 00-1.153-.556l-1.04-.451a18.186 18.186 0 01-1.426-.726 5.642 5.642 0 01-1.188-.883 3.7 3.7 0 01-.804-1.164c-.194-.444-.294-.978-.294-1.596 0-.662.128-1.263.385-1.798a4.086 4.086 0 011.051-1.367c.452-.381.97-.677 1.527-.872a5.42 5.42 0 011.811-.306c.948 0 1.81.229 2.578.689.77.461 1.381 1.111 1.832 1.956l-1.515.98z"/><path fill="#FFF" d="M98.568 26.148c-4.901 0-8.875 3.951-8.875 8.826 0 4.873 3.974 8.825 8.875 8.825 4.902 0 8.875-3.952 8.875-8.825 0-4.874-3.97-8.826-8.875-8.826zm0 15.888c-3.861 0-6.992-3.162-6.992-7.062 0-3.9 3.131-7.063 6.992-7.063 3.863 0 6.992 3.162 6.992 7.063.001 3.9-3.128 7.062-6.992 7.062zM29.853 21.077h3.867l-.777 1.764h-4.99V5.785h1.9v15.292zM98.309 6.224h3.211c.611-.001 1.223.026 1.832.08.574.05 1.143.152 1.697.305a8.167 8.167 0 011.596.634 8.287 8.287 0 011.525 1.041c.98.845 1.698 1.817 2.15 2.918.451 1.101.677 2.292.677 3.574 0 1.252-.226 2.413-.677 3.483-.452 1.071-1.155 2.029-2.105 2.874a8.286 8.286 0 01-1.538 1.097 7.832 7.832 0 01-1.594.656 9.067 9.067 0 01-1.722.317c-.594.053-1.225.079-1.889.079h-3.166V6.224h.003zm3.278 15.291c.513 0 1.013-.022 1.493-.067.471-.043.937-.13 1.391-.26.45-.13.883-.313 1.289-.544.438-.25.845-.549 1.213-.893a6.508 6.508 0 001.594-2.284c.354-.86.531-1.765.531-2.715a7.258 7.258 0 00-.553-2.805 6.214 6.214 0 00-1.664-2.307c-.783-.694-1.609-1.142-2.479-1.346a12.226 12.226 0 00-2.815-.305h-1.38v13.526h1.38zm11.114-15.291h8.847v1.765h-6.944v5.066h6.738v1.765h-6.738v6.695h6.944v1.765h-8.847V6.224zM62.314 4.845l6.196 14.318 6.222-14.318 3.459 18.027h-1.943l-2.194-11.536h-.046L68.51 23.573l-5.473-12.237h-.045l-2.195 11.536h-1.946l3.463-18.027zm25.168 1.087c-4.901 0-8.877 3.952-8.877 8.826s3.976 8.826 8.877 8.826 8.875-3.952 8.875-8.826-3.972-8.826-8.875-8.826zm0 15.887c-3.862 0-6.992-3.162-6.992-7.062 0-3.9 3.13-7.062 6.992-7.062 3.863 0 6.992 3.162 6.992 7.062.001 3.9-3.128 7.062-6.992 7.062zm-48.579-3.817l-2.058 4.841h-2.081l7.872-17.87 7.668 17.87H48.2l-2.014-4.841-.747-1.764-2.849-6.831-2.918 6.831-.769 1.764z"/><circle fill="#FFF" cx="42.534" cy="19.211" r="1.155"/><circle fill="#FFF" cx="135.113" cy="13.908" r="1.155"/><circle fill="#FFF" cx="14.387" cy="13.908" r="1.155"/><circle fill="#FFF" cx="70.851" cy="39.871" r="1.155"/></svg>